<svg xmlns="http://www.w3.org/2000/svg" viewBox="0 0 360 220" role="img" aria-label="Sport">
  <defs><linearGradient id="g" x1="0" x2="1" y1="0" y2="1"><stop stop-color="#2c3e50"/><stop offset="1" stop-color="#17232d"/></linearGradient></defs>
  <rect width="360" height="220" rx="24" fill="url(#g)"/>
  <circle cx="42" cy="36" r="80" fill="#fff8ee" opacity=".08"/>
  <circle cx="330" cy="200" r="110" fill="#c8963e" opacity=".12"/>
  <path d="M0 142 C48 92 84 82 130 118 C170 72 210 52 260 100 C294 132 320 116 360 82 L360 220 L0 220 Z" fill="#e7ddcf"/><path d="M28 152 C72 112 104 118 136 144 C176 96 216 82 260 128 C294 156 318 142 344 118" fill="none" stroke="#c8963e" stroke-width="6" stroke-linecap="round"/><circle cx="278" cy="58" r="28" fill="#d6ad62" opacity=".85"/>
</svg>